<?xml version="1.0" encoding="UTF-8"?>
<svg id="Layer_2" data-name="Layer 2" xmlns="http://www.w3.org/2000/svg" viewBox="0 0 901.99 662.64">
  <defs>
    <style>
      .cls-1 {
        fill: #fff;
      }

      .cls-2 {
        fill: #606060;
      }

      .cls-3 {
        fill: #bb1f2f;
      }
    </style>
  </defs>
  <g id="Layer_1-2" data-name="Layer 1">
    <g>
      <path d="M805,254.17c8.55-31.9,13.44-65.36,9.99-98.49-15.99-153.55-197.66-210.88-297.96-91.98-18.26,21.65-32.06,46.96-42.99,73.02l-45.37.49C394.86,53.38,323.58-13.95,226.81,2.49,129.27,19.05,78.52,105.89,87.01,200.66c1.63,18.16,6.22,35.77,9.98,53.51-32.15-5.45-65.44-3.34-96.99,4.5,61.28,38.74,114.99,89.56,145.86,156.14,9,19.41,14.24,39.69,28.63,56.38,37.61,43.59,110.2,22.38,144.51-15.02v18.5c0,1.27,11.95,18,13.81,21.2,19.14,32.92,30.04,63.66,34.18,101.81,1.09,10.01-1.77,10.69,5.5,19.51,13.49,16.37,35.77,31.75,55.53,39.47,20.18,7.88,25,7.98,45.23.26,17.41-6.64,36.22-18.47,49.27-31.7,2.06-2.09,11.19-12.23,11.94-14.09,1.35-3.35.15-7.82.55-11.45,3.69-33.5,12.69-64.6,28.82-94.18,2.66-4.89,19.17-28.05,19.17-29.83v-19.5l14.53,12.98c31.57,25.46,87.79,38.64,121.48,10.54,21.83-18.21,28.25-46.36,40.13-70.87,30.77-63.48,84.29-112.52,142.85-150.15-31.54-7.96-64.81-9.84-96.99-4.5ZM513.83,111.5c.74-1.25,3.67-6.57,4.16-6.89,3.14-2.01,19.43,8.05,23.31,9.76l20.69,14.8c-4.54-12.37-13.29-23.76-22.98-32.51-1.99-1.79-10.23-6.5-9.87-8.8.21-1.4,10.5-13.69,12.35-15.7,3.13-3.41,22.18-21.52,25.17-21.78,5.85-.53,24.6,18.93,28.93,23.7,1.01,1.11,1.48,2.51,3.4,2.09-1.74-13.14-10.15-24.22-17.99-34.46,1.06-4.34,41.14-18.19,47.3-16.33,5.24,1.59,11.47,15.96,15.69,19.79-.1-8.04-3.62-15.24-4.99-22.99,65.45-4.97,130.47,40.59,147.72,103.78,9.96,36.5,8.45,78.91-2.46,114.98-.83,2.77-5.36,16.86-6.49,18-1.56,1.58-11.94,3.6-14.76,5.23,14.23-53.88,22.24-137.87-26.54-176.97-65.21-52.26-131.07,43.73-154.33,95.61-2.16,4.83-8.7,18.18-7.95,22.6.62,3.66,10.23,21.93,8.8,23.76l-26.06-17.43c-2.07-2.78-.17-6.55.58-9.56,9-36.21,33.97-76.88,57.52-105.48,3.49-4.25,8.95-8.08,10.96-13.52-.75-.77-10.19,6.96-11.47,8.02-33.16,27.63-57.8,67.23-71.53,107.97-1.74,1.32-15.18-12.57-17.02-14.47-10-10.33-18.84-21.89-28.82-32.23-.93-3.65,13.71-35.93,16.68-40.97ZM637.62,195.29c-3.48,1.62-8.04,5.73-11.3,6.7-1.32.4-3.01.58-2.31-1.3,2.31-6.2,13.74-15.39,19.78-18.23,7.37-3.45,13.4-5.98,20.92-1.49,13.59,8.11,12.05,35.7,10.28,49.2l-11.87-4.11c2.49-21.19,1.8-43.45-25.5-30.77ZM116.08,123.75c17.81-61,82.85-108.16,146.89-100.53-.49,2.99-5.82,20.93-4.97,21.95,1.56,1.85,2.16-1.4,2.49-1.97,3.96-6.79,7.63-13.93,14.12-18.79,7.4.74,43.19,11.56,45.96,16.75,1.13,2.11-4.73,7.14-6,9.08-5.45,8.31-9.44,17.52-12.57,26.92,1.79.39,2.42-.95,3.52-1.96,3.68-3.4,6.83-8.26,11.01-12,2.68-2.4,14.8-11.87,17.45-12.62,2.8-.79,12.43,7.79,15.03,10.08,4.39,3.86,10.12,9.63,13.96,14.04,2.24,2.56,10.55,12.11,10.11,14.84-.1.64-8.77,6.05-10.55,7.66-9.76,8.78-18.25,20.45-22.52,32.97,5.62-4.74,11.43-9.82,17.68-13.81,3.59-2.29,22.77-12.93,25.65-12.08,3.38.99,18.1,35.08,19.69,40.36.77,2.53,2.26,6.04,1.48,8.46-12.25,16.04-26.22,30.44-40.96,44.12l-2.98.93c-5.49-11.95-9.98-24.3-16.05-36-11.62-22.39-28.69-45.63-46.99-63-3.05-2.89-11.99-11.33-14.99-13.02-1.6-.91-2.68-1.21-4.54-.95,22.83,25.56,42.53,53.7,56.17,85.32,4.11,9.52,10.42,24.73,12.37,34.62.32,1.67,1.09,4.38.24,5.85l-27.78,18.2c.85-8.51,10.75-20.84,8.54-29.02-1.92-7.06-9.12-21.26-12.66-28.36-24.84-49.77-87.94-134.87-149.78-84.02-38.17,31.39-40.65,92.52-33.97,137.77,1.93,13.02,6.13,25.59,7.86,38.63-7.23-3.32-12.72-2.03-16.47-10.02-16.4-34.96-17.14-93.75-6.44-130.4ZM239.59,226.21c-.38.54-11.08,4.33-11.58,3.97-6.36-25.23.74-66.71,35.31-44.83,6.13,3.88,14.08,11.33,14.67,18.82-17.32-13.13-40.42-22.46-40.07,9.52.03,2.55,2.29,11.63,1.67,12.52ZM265.56,444.23c-4.34,21.02-37.83,24.89-54.54,18.43-1.74-.68-8.72-4.64-9.01-6-.36-1.64,1.35-2.02,2.31-2.67,7.59-5.17,17.01-9.71,20.67-18.81-7.42,2.85-28.38,9.02-35.01,4.51-1.25-.86-12.16-26.46-12.01-27.98.32-3.36,16.31-10.39,17.03-16.53-7.82,2.18-15.49,5.21-23.84,3.83-18.92-39.67-43.89-77.39-78.69-104.81l-32.47-22.02c13.5.97,27.74,5.52,40.52,9.97,49.61,17.31,92.66,47.62,126.45,87.55,13.83,16.33,43.15,52.41,38.59,74.53ZM368.29,435.96c-19.15,4.3-31.1-14.7-29.29-31.78l10.78,7.2c1.65,2.85-1.99,9.44,2.7,13.81,1.15,1.08,6.52,3.84,7.99,3.87,5.12.14,5.96-5.41,10.52-4.45,8.03,1.68,2.32,10.23-2.7,11.35ZM533.71,435.96c-5.28-1.18-8.57-9.59-2.73-11.39,3.72-1.14,3.73,1.67,6.1,3.02,6.73,3.86,14.8-1.94,15.74-9.19.3-2.35-.92-4.76-.35-6.2.85-2.16,8.18-6.63,10.52-8.03,1.98,17.23-9.83,36.14-29.28,31.79ZM572.1,317.56c1.72,17.36,17.45,32.99,5.74,49.95-5.66,8.19-52.67,42.42-62.58,46.42-3.93,1.59-16.01,5.24-19.76,5.24h-25.5c.42,2.85,5.67,6.91,8.07,8.44,10.03,6.4,20.39,7.14,31.93,5.57-3.56,16.74-7.48,33.66-9.86,50.64-3.64,26.02-6.89,42.52,8.04,65.68,2.08,3.24,5.8,4.61,5.84,9.14-3.04,10.31-2.59,22.44-5.48,32.57-1.85,6.47-5.48,8.88-10.45,12.56-1.28.5-2.77.74-3.63-.55-.74-1.12-1.07-19-1.47-22.54l-1.98-7.5c-2.14,9.53-3.44,23.23-9,31.5-4.41,6.55-22.53,20.45-30.5,20.5-8.52.06-24.98-12.26-29.93-19.09-6.3-8.72-9.3-22.36-9.59-32.92-2.4,1.19-2.49,6.07-2.87,8.63-1.04,7.14-1.1,15.15-1.12,22.38-1.68,1.62-8.2-3.58-9.54-4.97-8.68-9.01-6.84-29.84-10.35-41.6,12.96-16.54,18.2-29.45,16.88-50.93-1.5-24.28-8.9-49.36-11.99-73.51,13.03,2.39,28.32-1.05,37.52-10.95.92-.99,1.83-1.43,1.48-3.05-8.2-.6-17.44.82-25.5,0-22.23-2.25-58.32-29.58-75.42-44.58-26.25-23.03,2.48-40.09-1.15-62.86-2.44-15.35-27.1-36.74-40.57-43.41-7.13-3.53-36.19-14.05-42.42-9.71-1.7,1.18-.78,6.79-.94,9.08-.07,1.1.55,3.33-1.49,2.47-3.3-1.38-14.93-18.32-14.36-21.35.62-3.35,17.89-7.95,21.45-8.53,26.56-4.31,52.36,4.85,73.73,20.06,2.82,2.01,4.89,5.7,8.66,5.83,1.94-4.28-6.96-18.98-5.86-20.85,29.9-18.37,56.47-41.56,80.38-67.13,5.86-6.26,8.78-15.08,17.99-16.02,10.4-1.07,17.15,1.2,24.85,7.92,8.17-8.82,20.49-10.4,31.36-5.62,25.65,32.48,57.27,59.16,91.85,81.71,1.17,1.89-1.45,2.9-2.32,4.74-2.29,4.89-4.23,10.79-4.23,16.25,6.13-3.61,10.95-8.7,17.07-12.42,25.92-15.75,59.27-21.68,87-6.96.67,4.06-10.78,20.78-14.59,22.37-2.04.86-1.42-1.37-1.49-2.47-.16-2.29.76-7.9-.94-9.08-17.21-1.73-37.61,5.92-51.79,15.34-11.56,7.68-32.64,28.9-31.17,43.61ZM814.08,290.76c-32.36,24.66-53.2,53.78-73.25,88.74-1.62,2.82-9.06,18.93-9.99,19.51-3.75,2.34-19.12-2.8-23.84-3.83,4.15,7.05,11.37,11.06,17.93,15.59l-12.44,28.39c-11.91,5.1-24.98-1.01-36.47-4.5,5.85,9.74,14.98,14.24,23.68,20.29.86.6,1.86-.17,1.29,2.2-13.72,9.48-31.08,10.92-46.51,5.04-34.82-13.26-11.57-49.16,2.7-69.33,37.73-53.29,89.96-93.61,152.62-113.39,9.93-3.14,20.9-6.4,31.2-7.29-8.23,6.91-18.23,11.96-26.92,18.58Z"/>
      <path class="cls-1" d="M533.71,435.96c-5.28-1.18-8.57-9.59-2.73-11.39,3.72-1.14,3.73,1.67,6.1,3.02,6.73,3.86,14.8-1.94,15.74-9.19.3-2.35-.92-4.76-.35-6.2.85-2.16,8.18-6.63,10.52-8.03,1.98,17.23-9.83,36.14-29.28,31.79Z"/>
      <path class="cls-1" d="M368.29,435.96c-19.15,4.3-31.1-14.7-29.29-31.78l10.78,7.2c1.65,2.85-1.99,9.44,2.7,13.81,1.15,1.08,6.52,3.84,7.99,3.87,5.12.14,5.96-5.41,10.52-4.45,8.03,1.68,2.32,10.23-2.7,11.35Z"/>
      <path class="cls-3" d="M674.99,230.17l-11.87-4.11c2.49-21.19,1.8-43.45-25.5-30.77-3.48,1.62-8.04,5.73-11.3,6.7-1.32.4-3.01.58-2.31-1.3,2.31-6.2,13.74-15.39,19.78-18.23,7.37-3.45,13.4-5.98,20.92-1.49,13.59,8.11,12.05,35.7,10.28,49.2Z"/>
      <path class="cls-3" d="M277.99,204.17c-17.32-13.13-40.42-22.46-40.07,9.52.03,2.55,2.29,11.63,1.67,12.52-.38.54-11.08,4.33-11.58,3.97-6.36-25.23.74-66.71,35.31-44.83,6.13,3.88,14.08,11.33,14.67,18.82Z"/>
      <path class="cls-1" d="M841,272.18c-8.23,6.91-18.23,11.96-26.92,18.58-32.36,24.66-53.2,53.78-73.25,88.74-1.62,2.82-9.06,18.93-9.99,19.51-3.75,2.34-19.12-2.8-23.84-3.83,4.15,7.05,11.37,11.06,17.93,15.59l-12.44,28.39c-11.91,5.1-24.98-1.01-36.47-4.5,5.85,9.74,14.98,14.24,23.68,20.29.86.6,1.86-.17,1.29,2.2-13.72,9.48-31.08,10.92-46.51,5.04-34.82-13.26-11.57-49.16,2.7-69.33,37.73-53.29,89.96-93.61,152.62-113.39,9.93-3.14,20.9-6.4,31.2-7.29Z"/>
      <path class="cls-1" d="M786.72,125.96c-17.25-63.19-82.27-108.75-147.72-103.78,1.37,7.75,4.89,14.95,4.99,22.99-4.22-3.83-10.45-18.2-15.69-19.79-6.16-1.86-46.24,11.99-47.3,16.33,7.84,10.24,16.25,21.32,17.99,34.46-1.92.42-2.39-.98-3.4-2.09-4.33-4.77-23.08-24.23-28.93-23.7-2.99.26-22.04,18.37-25.17,21.78-1.85,2.01-12.14,14.3-12.35,15.7-.36,2.3,7.88,7.01,9.87,8.8,9.69,8.75,18.44,20.14,22.98,32.51l-20.69-14.8c-3.88-1.71-20.17-11.77-23.31-9.76-.49.32-3.42,5.64-4.16,6.89-2.97,5.04-17.61,37.32-16.68,40.97,9.98,10.34,18.82,21.9,28.82,32.23,1.84,1.9,15.28,15.79,17.02,14.47,13.73-40.74,38.37-80.34,71.53-107.97,1.28-1.06,10.72-8.79,11.47-8.02-2.01,5.44-7.47,9.27-10.96,13.52-23.55,28.6-48.52,69.27-57.52,105.48-.75,3.01-2.65,6.78-.58,9.56l26.06,17.43c1.43-1.83-8.18-20.1-8.8-23.76-.75-4.42,5.79-17.77,7.95-22.6,23.26-51.88,89.12-147.87,154.33-95.61,48.78,39.1,40.77,123.09,26.54,176.97,2.82-1.63,13.2-3.65,14.76-5.23,1.13-1.14,5.66-15.23,6.49-18,10.91-36.07,12.42-78.48,2.46-114.98ZM599.99,79.17c-.35.68-1.7-.59-.98-1.99.35-.68,1.7.58.98,1.99Z"/>
      <path class="cls-1" d="M265.56,444.23c-4.34,21.02-37.83,24.89-54.54,18.43-1.74-.68-8.72-4.64-9.01-6-.36-1.64,1.35-2.02,2.31-2.67,7.59-5.17,17.01-9.71,20.67-18.81-7.42,2.85-28.38,9.02-35.01,4.51-1.25-.86-12.16-26.46-12.01-27.98.32-3.36,16.31-10.39,17.03-16.53-7.82,2.18-15.49,5.21-23.84,3.83-18.92-39.67-43.89-77.39-78.69-104.81l-32.47-22.02c13.5.97,27.74,5.52,40.52,9.97,49.61,17.31,92.66,47.62,126.45,87.55,13.83,16.33,43.15,52.41,38.59,74.53Z"/>
      <path class="cls-1" d="M404.51,153.1c-12.25,16.04-26.22,30.44-40.96,44.12l-2.98.93c-5.49-11.95-9.98-24.3-16.05-36-11.62-22.39-28.69-45.63-46.99-63-3.05-2.89-11.99-11.33-14.99-13.02-1.6-.91-2.68-1.21-4.54-.95,22.83,25.56,42.53,53.7,56.17,85.32,4.11,9.52,10.42,24.73,12.37,34.62.32,1.67,1.09,4.38.24,5.85l-27.78,18.2c.85-8.51,10.75-20.84,8.54-29.02-1.92-7.06-9.12-21.26-12.66-28.36-24.84-49.77-87.94-134.87-149.78-84.02-38.17,31.39-40.65,92.52-33.97,137.77,1.93,13.02,6.13,25.59,7.86,38.63-7.23-3.32-12.72-2.03-16.47-10.02-16.4-34.96-17.14-93.75-6.44-130.4,17.81-61,82.85-108.16,146.89-100.53-.49,2.99-5.82,20.93-4.97,21.95,1.56,1.85,2.16-1.4,2.49-1.97,3.96-6.79,7.63-13.93,14.12-18.79,7.4.74,43.19,11.56,45.96,16.75,1.13,2.11-4.73,7.14-6,9.08-5.45,8.31-9.44,17.52-12.57,26.92,1.79.39,2.42-.95,3.52-1.96,3.68-3.4,6.83-8.26,11.01-12,2.68-2.4,14.8-11.87,17.45-12.62,2.8-.79,12.43,7.79,15.03,10.08,4.39,3.86,10.12,9.63,13.96,14.04,2.24,2.56,10.55,12.11,10.11,14.84-.1.64-8.77,6.05-10.55,7.66-9.76,8.78-18.25,20.45-22.52,32.97,5.62-4.74,11.43-9.82,17.68-13.81,3.59-2.29,22.77-12.93,25.65-12.08,3.38.99,18.1,35.08,19.69,40.36.77,2.53,2.26,6.04,1.48,8.46Z"/>
      <path class="cls-3" d="M672.08,247.79c-27.73-14.72-61.08-8.79-87,6.96-6.12,3.72-10.94,8.81-17.07,12.42,0-5.46,1.94-11.36,4.23-16.25.87-1.84,3.49-2.85,2.32-4.74-34.58-22.55-66.2-49.23-91.85-81.71-10.87-4.78-23.19-3.2-31.36,5.62-7.7-6.72-14.45-8.99-24.85-7.92-9.21.94-12.13,9.76-17.99,16.02-23.91,25.57-50.48,48.76-80.38,67.13-1.1,1.87,7.8,16.57,5.86,20.85-3.77-.13-5.84-3.82-8.66-5.83-21.37-15.21-47.17-24.37-73.73-20.06-3.56.58-20.83,5.18-21.45,8.53-.57,3.03,11.06,19.97,14.36,21.35,2.04.86,1.42-1.37,1.49-2.47.16-2.29-.76-7.9.94-9.08,6.23-4.34,35.29,6.18,42.42,9.71,13.47,6.67,38.13,28.06,40.57,43.41,3.63,22.77-25.1,39.83,1.15,62.86,17.1,15,53.19,42.33,75.42,44.58,8.06.82,17.3-.6,25.5,0,.35,1.62-.56,2.06-1.48,3.05-9.2,9.9-24.49,13.34-37.52,10.95,3.09,24.15,10.49,49.23,11.99,73.51,1.32,21.48-3.92,34.39-16.88,50.93,3.51,11.76,1.67,32.59,10.35,41.6,1.34,1.39,7.86,6.59,9.54,4.97.02-7.23.08-15.24,1.12-22.38.38-2.56.47-7.44,2.87-8.63.29,10.56,3.29,24.2,9.59,32.92,4.95,6.83,21.41,19.15,29.93,19.09,7.97-.05,26.09-13.95,30.5-20.5,5.56-8.27,6.86-21.97,9-31.5l1.98,7.5c.4,3.54.73,21.42,1.47,22.54.86,1.29,2.35,1.05,3.63.55,4.97-3.68,8.6-6.09,10.45-12.56,2.89-10.13,2.44-22.26,5.48-32.57-.04-4.53-3.76-5.9-5.84-9.14-14.93-23.16-11.68-39.66-8.04-65.68,2.38-16.98,6.3-33.9,9.86-50.64-11.54,1.57-21.9.83-31.93-5.57-2.4-1.53-7.65-5.59-8.07-8.44h25.5c3.75,0,15.83-3.65,19.76-5.24,9.91-4,56.92-38.23,62.58-46.42,11.71-16.96-4.02-32.59-5.74-49.95-1.47-14.71,19.61-35.93,31.17-43.61,14.18-9.42,34.58-17.07,51.79-15.34,1.7,1.18.78,6.79.94,9.08.07,1.1-.55,3.33,1.49,2.47,3.81-1.59,15.26-18.31,14.59-22.37ZM458.75,339.42c-1.36,8.77-4.86,17.13-6.76,25.75-3.07-2.32-4.44-8.2-5.5-11.98-7.26-25.73-2.25-52.34,2.81-78.22.43-2.17.31-5.83,2.69-6.8,2.39,23.98,10.51,46.96,6.76,71.25Z"/>
      <path d="M458.75,339.42c-1.36,8.77-4.86,17.13-6.76,25.75-3.07-2.32-4.44-8.2-5.5-11.98-7.26-25.73-2.25-52.34,2.81-78.22.43-2.17.31-5.83,2.69-6.8,2.39,23.98,10.51,46.96,6.76,71.25Z"/>
      <path class="cls-2" d="M599.99,79.17c-.35.68-1.7-.59-.98-1.99.35-.68,1.7.58.98,1.99Z"/>
    </g>
  </g>
</svg>
