<?xml version="1.0" encoding="UTF-8"?>
<svg id="Layer_2" data-name="Layer 2" xmlns="http://www.w3.org/2000/svg" viewBox="0 0 109.64 39.66">
  <defs>
    <style>
      .cls-1 {
        fill: #fff;
      }

      .cls-2 {
        fill: #d0fe18;
      }
    </style>
  </defs>
  <g id="Layer_1-2" data-name="Layer 1">
    <g>
      <g>
        <g>
          <polygon class="cls-1" points="78.14 15.6 78.93 23.01 80.57 15.61 83.39 15.6 80.3 29.25 77.26 29.17 76.52 22.26 74.89 29.12 74.61 29.25 72.07 29.25 75.22 15.65 78.14 15.6"/>
          <path class="cls-1" d="M90.63,15.6l-.42,13.65h-3.08l.17-2.41h-2.41l-.83,2.41h-3.08l5.58-13.65h4.08ZM85.88,24.34c.35.01.7-.01,1.04,0,.2,0,.53.2.61-.05l.34-5.19-2,5.24Z"/>
          <path class="cls-1" d="M109.18,19.93h-2.91c0-.36.51-1.29.3-1.59-.17-.24-1.47-.27-1.69.15-.09.16-.45,1.66-.43,1.81s.14.24.26.33c.86.68,3.34,1.61,3.55,2.69.16.77-.35,2.71-.61,3.52-.29.91-.81,1.71-1.71,2.12-.96.44-4.38.45-5.3-.03-1-.52-.92-1.39-.75-2.36.1-.58.3-1.29.51-1.82h2.79c.07.36-.33,1.44-.24,1.69.1.31,1.65.28,1.83,0,.24-.37.27-1.5.41-1.97-.04-.21-3.13-1.67-3.57-2.36-.26-.41-.3-.82-.24-1.3.1-.78.68-3.11,1.07-3.75.32-.53.93-1.01,1.51-1.24.92-.36,3.91-.38,4.79.07,1.61.82.55,2.71.42,4.03Z"/>
          <path class="cls-1" d="M73.07,19.93h-2.91c.09-.29.54-1.37.38-1.59s-1.41-.22-1.63-.03c-.16.14-.56,1.9-.46,2.12.13.29,2.66,1.57,3.16,2,.73.63.67,1.14.52,2.01-.31,1.77-.69,4.06-2.67,4.65-.83.25-3.46.26-4.3.04-.62-.16-1.25-.66-1.33-1.33-.11-.93.3-2.18.63-3.04h2.7c.07.42-.36,1.35-.24,1.69.11.31,1.57.32,1.81-.08.09-.16.45-1.67.43-1.82,0-.07-.02-.13-.08-.17-.79-.59-3.53-1.73-3.73-2.68-.06-.28-.03-.75,0-1.04.09-.71.65-2.92.99-3.5,1.06-1.77,3.51-1.72,5.35-1.55,2.63.24,1.81,2.57,1.37,4.33Z"/>
          <path class="cls-1" d="M90.92,29.25l3.16-13.62c1.23.14,2.5,0,3.73.02s3.4,0,3.38,1.82c0,.87-.85,4.53-1.2,5.37-.99,2.38-3,2.12-5.2,2.08l-.93,4.19c-.03.15-.29.14-.44.14h-2.5ZM97.74,18.27c-.4-.07-.95.05-1.37,0l-1,4.08h1.29c.25,0,.52-.34.6-.56.2-.53.62-2.4.68-2.98.02-.23.09-.48-.2-.53Z"/>
        </g>
        <g>
          <path class="cls-1" d="M17.97,15.6l-.58,7.87.04,2.04,3.99-9.82c.06-.09.15-.08.25-.09.54-.07,1.66-.03,2.26,0,.22,0,.41.06.62.09l-5.82,13.53c-1.01.13-2.03,0-3.04-.05-.38-.02-.77.06-1.12.05-.1,0-.12,0-.16-.1l.4-13.51h3.16Z"/>
          <path class="cls-1" d="M30.04,26.42l-.67,2.82-7.15-.12,3.17-13.52h7.15s-.59,2.82-.59,2.82h-4.06c-.07.36-.68,2.63-.59,2.75.06.02.1-.08.12-.08h3.37c-.08.39-.46,2.59-.66,2.71l-3.5-.04-.58,2.66h3.99Z"/>
          <path class="cls-1" d="M3.66,26.42h3.66l-.68,2.82H0s.02-.43.02-.43l3.05-13.17c.87-.08,1.76-.03,2.63.04.18.01.32-.16.44.05l-2.49,10.7Z"/>
          <path class="cls-1" d="M7.7,29.25s-.13-.11-.09-.17l3.09-13.4c.2-.24,1.58,0,1.92,0,.19,0,1.11-.18,1.21-.08v.21s-3.08,13.44-3.08,13.44h-3.04Z"/>
        </g>
      </g>
      <g>
        <path class="cls-2" d="M44.19,6.95c.09.09-.58,1.31-.68,1.52-.12.25-.23.93-.53.98l-6.2-1.25,1.51,7.87c-.03.5-1.82,1.97-2.13,2.53-.12-.07-.1-.18-.13-.28-.91-3.2-1.21-6.83-1.99-10.09-.01-.87.38-1.29.78-1.95.04-.07-.02-.18.04-.29.29-.49,1.27-.59,1.79-.54l7.53,1.5Z"/>
        <path class="cls-2" d="M40.78,30.67c.4,1.08.18,3.62,1.64,3.89l17.13.02c.53-.01.59-.21.52-.69l-2.71-9.5,2.23-1.38,3.97,13.71c.39,1.52-.88,2.81-2.35,2.94h-18.65c-1.61-.21-2.71-1.31-3.16-2.83-.49-1.66-.87-3.93-1.17-5.66-.09-.54-.15-1.09-.26-1.63l.61-.44,1.69-.93c.09.48.16.97.25,1.45.02.1-.06.15.12.13l5.99-4.99.12-.17c-1-.13-1.98-.48-2.82-1.05l-.2.06c-3.57,2.83-7.3,5.43-11.07,8-.17.11-.36.29-.56.31.57-.66,1.15-1.33,1.75-1.96,2.82-2.97,5.84-5.77,8.62-8.78-.17-1.35-.44-2.7-.38-4.07-3.09,2.96-6.41,5.69-9.78,8.32-.16.12-.44.42-.62.38,3.51-4.35,7.27-8.48,10.94-12.7C45.58,3.69,53.59-1.35,63.43.31c3.4.57,3.86,2.39,3.98,5.59.34,9.15-5.74,16.55-14.48,18.64-.49.12-1.11.13-1.56.27-.89.28-2.89,1.56-3.82,2.08-2.12,1.18-4.19,2.52-6.35,3.64-.13.07-.27.13-.42.12ZM59.92,2.12l3.12,3.24c.22-.3,2.03-2.05,2.04-2.2,0-.04-.43-.43-.52-.48-1.22-.59-3.32-.34-4.64-.56ZM59.2,4.75c-.73-.75-1.43-1.53-2.17-2.28-5.77.81-10.4,5.04-11.89,10.63l5.2,5.12,1.33-1.13c-.88-.39-1.59-1.22-1.92-2.12-.07-.19-.34-1.18-.29-1.29.03-.08.74-.76.82-.74.36.23.5.62.7.97.03.05,0,.16.14.11.23-.09.77-.87,1.04-1.04l-.91-1.07c.03-.19.9-.73.91-1.05l1.12.92.79-.88c-.09-.19-.98-.86-.99-.92-.04-.18.9-1.12,1.02-1.1l1.17.9c.08-.01,1.03-.98,1.1-1.07.06-.09.09-.09-.01-.17-.15-.13-1.19-.7-1.2-.79.23-.16.86-.98,1.06-1.03.31-.07,1.8.71,2.1.95.47.39.74.92,1.08,1.4.07.11.09.06.17,0,.63-.4,1.31-1.5,1.91-2-.77-.76-1.54-1.54-2.29-2.32ZM57.92,9.94c-.1-.07-1.12.95-1.15,1.06-.06.23.54.97.7,1.19.39-.23.63-.67,1.04-.84l-.58-1.41ZM55.21,12.64c-.75.77-.37.71.26,1.38l.87-.79-.79-.87c-.07-.03-.27.21-.34.28ZM52.59,15.27c.11.16.84.65.96.64.07,0,.8-.75.78-.84l-.77-.71c-.21.04-.7.87-.97.91ZM48.35,19.43l-3.91-3.83c-.28,2-.23,4.05.33,5.99.14.11,2.85-1.51,3.15-1.71.1-.07.52-.3.42-.45ZM50.57,36.34c-.59.13-.59,1,0,1.13.4.09,2.95.08,3.39.01.67-.11.6-1.02.07-1.14-.99.1-2.54-.2-3.46,0Z"/>
      </g>
    </g>
  </g>
</svg>
