<?xml version="1.0" encoding="UTF-8"?>
<svg id="Layer_2" data-name="Layer 2" xmlns="http://www.w3.org/2000/svg" viewBox="0 0 92.37 39.96">
  <defs>
    <style>
      .cls-1 {
        fill: #fff;
      }

      .cls-2 {
        fill: #d0fe18;
      }
    </style>
  </defs>
  <g id="Layer_1-2" data-name="Layer 1">
    <g>
      <g>
        <path class="cls-1" d="M58.37,26.5s.08-.16.21.04l-3.14,12.29-3.74.04-2.26-6.59c-.21.64-1.46,6.62-1.8,6.62h-3.4l3.11-12.4h3.92s2.07,6.37,2.07,6.37l1.64-6.37c1.13-.02,2.27.02,3.4,0Z"/>
        <path class="cls-1" d="M68.14,26.5l.67,12.41h-3.77c.06-.61-.04-1.21-.09-1.81,0-.11.14-.46-.04-.46h-3.73c-.32.79-.78,1.53-1.22,2.26h-3.73l6.96-12.41h4.95ZM65.03,33.96v-4.44l-2.43,4.44h2.43Z"/>
        <path class="cls-1" d="M73,38.91h-3.61l3.1-12.41c2.29.12,4.74-.16,7,0,2.95.21,2.3,2.65,1.77,4.72-.29,1.16-.67,2.62-1.66,3.37-1.66,1.27-3.76.63-5.7.84l-.92,3.48ZM74.59,32.53h2.14s.57-.25.62-.3c.31-.28.8-2.42.45-2.64-.17-.11-2.26-.12-2.38-.04l-.83,2.98Z"/>
        <path class="cls-1" d="M92.37,26.5l-.67,3.01h-4.99c-.49-.16-.88,1.2-.71,1.3,1.14.48,4.17.64,4.82,1.73.45.76-.01,2.34-.26,3.16-.59,1.89-1.79,3.21-3.92,3.21h-6.33l.68-3.09h5.57c.61-.09.63-.94.62-1.43-1.18-.33-3.82-.51-4.65-1.43s-.08-3.21.34-4.19c.47-1.1,1.65-2.27,2.93-2.27h6.58Z"/>
        <path class="cls-1" d="M46.08,26.5l-.68,3.01h-4.98c-.26.02-.48.18-.61.41-.07.13-.3.83-.19.9,1.11.43,4.02.64,4.7,1.59.62.88-.07,3.18-.49,4.12-.63,1.4-2.09,2.38-3.66,2.38h-6.08l.68-3.09c1.72-.13,3.62.14,5.32,0,.22-.02.36,0,.48-.19.1-.16.35-1.11.23-1.19-1.31-.5-4.75-.46-4.95-2.26-.13-1.22.63-3.73,1.52-4.6.5-.49,1.78-1.06,2.46-1.06h6.25Z"/>
      </g>
      <g>
        <polygon class="cls-1" points="73.17 11.91 72.4 15 67.22 15.01 66.8 16.94 71.32 16.94 70.73 19.7 66.04 19.71 65.62 21.63 70.74 21.63 70.07 24.65 61.09 24.65 64.36 11.91 73.17 11.91"/>
        <polygon class="cls-1" points="55.39 11.91 55.39 21.38 60.17 11.91 63.52 11.91 56.9 24.65 52.2 24.65 51.62 11.91 55.39 11.91"/>
        <path class="cls-1" d="M38.7,21.55h5.28l-.88,3.1h-9.01l3.19-12.75h3.82s.09-.13.12-.08l-2.51,9.73Z"/>
        <polygon class="cls-1" points="51.11 11.91 47.8 24.65 44.24 24.65 47.34 11.91 51.11 11.91"/>
      </g>
      <g>
        <path class="cls-2" d="M9.14,30.9c.4,1.09.18,3.65,1.66,3.92l17.26.02c.53-.01.6-.21.52-.7l-2.73-9.57,2.25-1.39,4,13.81c.39,1.53-.89,2.83-2.37,2.96H10.94c-1.62-.21-2.73-1.32-3.18-2.85-.49-1.67-.88-3.96-1.18-5.7-.09-.55-.15-1.1-.26-1.64l.62-.44,1.7-.94c.09.49.16.98.25,1.47.02.11-.06.15.12.13l6.04-5.03.12-.17c-1.01-.14-2-.49-2.84-1.05l-.2.06c-3.6,2.85-7.36,5.47-11.15,8.06-.17.11-.36.29-.56.32.57-.67,1.16-1.34,1.76-1.97,2.84-2.99,5.88-5.81,8.68-8.85-.17-1.36-.44-2.72-.38-4.11-3.11,2.99-6.45,5.73-9.86,8.38-.16.12-.44.43-.63.38,3.54-4.38,7.33-8.55,11.02-12.79C13.98,3.72,22.05-1.36,31.96.32c3.43.58,3.88,2.4,4.01,5.64.35,9.22-5.78,16.68-14.59,18.78-.5.12-1.12.13-1.57.27-.89.28-2.91,1.58-3.85,2.1-2.14,1.19-4.22,2.54-6.4,3.67-.13.07-.27.13-.42.12ZM28.43,2.14l3.14,3.27c.22-.31,2.05-2.07,2.05-2.22,0-.04-.43-.43-.52-.48-1.23-.59-3.34-.34-4.67-.57ZM27.71,4.78c-.73-.76-1.44-1.54-2.18-2.29-5.81.82-10.48,5.08-11.98,10.71l5.24,5.16,1.34-1.13c-.89-.39-1.61-1.23-1.93-2.14-.07-.19-.34-1.19-.29-1.3.03-.08.75-.76.83-.75.36.23.5.63.71.98.03.05,0,.16.14.11.23-.1.78-.87,1.05-1.05l-.91-1.08c.03-.19.91-.74.92-1.06l1.13.92.8-.88c-.09-.19-.98-.86-1-.93-.04-.18.9-1.13,1.03-1.11l1.18.91c.08-.01,1.04-.98,1.1-1.08.06-.09.09-.09-.01-.17-.15-.13-1.2-.71-1.2-.79.23-.16.87-.99,1.06-1.04.31-.08,1.81.71,2.12.96.48.39.75.92,1.09,1.41.07.11.09.06.17,0,.64-.4,1.32-1.52,1.93-2.01-.78-.77-1.55-1.56-2.31-2.34ZM26.41,10.02c-.1-.07-1.13.95-1.16,1.07-.06.23.54.97.7,1.2.39-.23.63-.67,1.05-.84l-.59-1.42ZM23.68,12.73c-.75.78-.38.71.26,1.39l.88-.79-.8-.88c-.08-.03-.27.21-.34.28ZM21.05,15.39c.11.16.84.66.97.65.07,0,.81-.75.79-.85l-.78-.72c-.21.04-.7.88-.98.92ZM16.77,19.58l-3.94-3.86c-.28,2.01-.23,4.08.34,6.04.15.11,2.88-1.52,3.18-1.73.1-.07.53-.3.43-.45ZM19.01,36.62c-.59.13-.59,1.01,0,1.14.4.09,2.97.09,3.42.01.68-.11.6-1.03.07-1.15-1,.1-2.56-.21-3.49,0Z"/>
        <path class="cls-2" d="M12.58,7c.1.09-.59,1.32-.69,1.54-.12.25-.23.94-.53.98l-6.24-1.26,1.52,7.93c-.03.5-1.84,1.99-2.15,2.55-.12-.07-.1-.18-.13-.29-.91-3.22-1.22-6.89-2-10.17-.01-.87.38-1.3.79-1.96.04-.07-.02-.18.04-.29.3-.5,1.28-.6,1.81-.54l7.59,1.51Z"/>
      </g>
    </g>
  </g>
</svg>
